/* XPM */
static char * qldt_xpm[] = {
"32 32 615 2",
"  	c None",
". 	c #221E1E",
"+ 	c #595656",
"@ 	c #D8D9D4",
"# 	c #F2F3EE",
"$ 	c #3D3937",
"% 	c #201C1B",
"& 	c #221D1C",
"* 	c #252121",
"= 	c #2C2A29",
"- 	c #C9CBC5",
"; 	c #D1D2CC",
"> 	c #B7BAB5",
", 	c #939692",
"' 	c #696B69",
") 	c #1E1D1E",
"! 	c #1F1D20",
"~ 	c #1F1E1F",
"{ 	c #1F1E1E",
"] 	c #1E1D1C",
"^ 	c #211D1C",
"/ 	c #272222",
"( 	c #343130",
"_ 	c #CACEC9",
": 	c #D3D4CE",
"< 	c #797B77",
"[ 	c #2A2E31",
"} 	c #301D19",
"| 	c #552B20",
"1 	c #6E3222",
"2 	c #823A28",
"3 	c #833A29",
"4 	c #783929",
"5 	c #623528",
"6 	c #3E241E",
"7 	c #1A1C20",
"8 	c #1C1D1E",
"9 	c #221E1D",
"0 	c #221F1E",
"a 	c #242121",
"b 	c #D8D9D2",
"c 	c #A3A5A0",
"d 	c #2A2928",
"e 	c #331310",
"f 	c #8B3824",
"g 	c #B43C24",
"h 	c #B8391E",
"i 	c #B13823",
"j 	c #AF3621",
"k 	c #AD3420",
"l 	c #AC311D",
"m 	c #B02E14",
"n 	c #AE341B",
"o 	c #953922",
"p 	c #522820",
"q 	c #211F20",
"r 	c #201F1F",
"s 	c #231D1E",
"t 	c #D6D8D2",
"u 	c #60605F",
"v 	c #1F1614",
"w 	c #8B2E19",
"x 	c #A72E19",
"y 	c #A1230F",
"z 	c #A22C19",
"A 	c #A32E1B",
"B 	c #A12B19",
"C 	c #A02A18",
"D 	c #9E2816",
"E 	c #9C2714",
"F 	c #9B2513",
"G 	c #961E0C",
"H 	c #951703",
"I 	c #9D210C",
"J 	c #942C15",
"K 	c #3C2623",
"L 	c #121616",
"M 	c #A1A09C",
"N 	c #AFB0AB",
"O 	c #676765",
"P 	c #261210",
"Q 	c #9E2D16",
"R 	c #9F2411",
"S 	c #A83E2F",
"T 	c #CA8A81",
"U 	c #AF4C3C",
"V 	c #A12A17",
"W 	c #A12B18",
"X 	c #9F2916",
"Y 	c #9D2715",
"Z 	c #9C2613",
"` 	c #98200E",
" .	c #AE564A",
"..	c #BD7D74",
"+.	c #932819",
"@.	c #8C1101",
"#.	c #A12912",
"$.	c #442019",
"%.	c #454746",
"&.	c #CFD0CA",
"*.	c #241F20",
"=.	c #221D1E",
"-.	c #1B1919",
";.	c #2C1A17",
">.	c #962715",
",.	c #981D0B",
"'.	c #BE7165",
").	c #E1BDB6",
"!.	c #B45344",
"~.	c #9F2A18",
"{.	c #9C2614",
"].	c #992311",
"^.	c #97210F",
"/.	c #AE5549",
"(.	c #DBBBB7",
"_.	c #A55145",
":.	c #850E00",
"<.	c #94200C",
"[.	c #3C1913",
"}.	c #454647",
"|.	c #D3D5CE",
"1.	c #272323",
"2.	c #902411",
"3.	c #931806",
"4.	c #BB7066",
"5.	c #E4C4BF",
"6.	c #9F2612",
"7.	c #9E2310",
"8.	c #9D2714",
"9.	c #9A2311",
"0.	c #97200F",
"a.	c #95200D",
"b.	c #921D0C",
"c.	c #8B0F00",
"d.	c #972C1F",
"e.	c #E3CAC7",
"f.	c #A15146",
"g.	c #820C00",
"h.	c #9D2F1B",
"i.	c #291918",
"j.	c #91928E",
"k.	c #D4D5CF",
"l.	c #322E2C",
"m.	c #201F20",
"n.	c #742214",
"o.	c #911503",
"p.	c #B05C51",
"q.	c #EEDDDA",
"r.	c #9F2B1A",
"s.	c #9C2411",
"t.	c #9C2715",
"u.	c #9A2412",
"v.	c #982210",
"w.	c #941E0D",
"x.	c #921B0A",
"y.	c #901A0A",
"z.	c #8A1909",
"A.	c #861002",
"B.	c #962F25",
"C.	c #EFE0DD",
"D.	c #94372A",
"E.	c #820900",
"F.	c #862B1A",
"G.	c #232022",
"H.	c #CDCDC8",
"I.	c #262323",
"J.	c #352221",
"K.	c #8A1405",
"L.	c #942718",
"M.	c #F2E8E6",
"N.	c #AF5649",
"O.	c #941B0A",
"P.	c #982111",
"Q.	c #982311",
"R.	c #98210F",
"S.	c #96200E",
"T.	c #931D0C",
"U.	c #911C0B",
"V.	c #8F1A09",
"W.	c #8D1808",
"X.	c #8A1707",
"Y.	c #861607",
"Z.	c #821608",
"`.	c #7D0A00",
" +	c #B47871",
".+	c #E6D3D0",
"++	c #821809",
"@+	c #861309",
"#+	c #351B16",
"$+	c #71726F",
"%+	c #D1D3CD",
"&+	c #221D1D",
"*+	c #1B1C1E",
"=+	c #682E27",
"-+	c #840900",
";+	c #B7756D",
">+	c #E0C5C1",
",+	c #880800",
"'+	c #931C0C",
")+	c #951D0D",
"!+	c #8A1B0A",
"~+	c #7F1507",
"{+	c #7A1307",
"]+	c #771205",
"^+	c #751204",
"/+	c #781205",
"(+	c #781306",
"_+	c #7A1306",
":+	c #7A1305",
"<+	c #771105",
"[+	c #760B00",
"}+	c #EDE2DF",
"|+	c #9E5147",
"1+	c #7B0900",
"2+	c #814034",
"3+	c #282B2D",
"4+	c #2D2A2B",
"5+	c #201C1C",
"6+	c #202122",
"7+	c #77180D",
"8+	c #7F0E00",
"9+	c #E3CFCB",
"0+	c #B16D65",
"a+	c #840700",
"b+	c #8C1708",
"c+	c #7F1607",
"d+	c #701105",
"e+	c #680E04",
"f+	c #690F04",
"g+	c #6B0F04",
"h+	c #6C1004",
"i+	c #6D1003",
"j+	c #6E1003",
"k+	c #6E1004",
"l+	c #6F1104",
"m+	c #701104",
"n+	c #630000",
"o+	c #BB928D",
"p+	c #CEABA6",
"q+	c #720500",
"r+	c #8E3225",
"s+	c #2C221F",
"t+	c #BBBEB8",
"u+	c #252120",
"v+	c #211E1D",
"w+	c #433634",
"x+	c #720100",
"y+	c #862C22",
"z+	c #FFFEFE",
"A+	c #903C32",
"B+	c #720A00",
"C+	c #650F03",
"D+	c #5D0D04",
"E+	c #600E03",
"F+	c #610E03",
"G+	c #620E04",
"H+	c #640F04",
"I+	c #630F04",
"J+	c #650F04",
"K+	c #661004",
"L+	c #681004",
"M+	c #5E0200",
"N+	c #925850",
"O+	c #F1E9E8",
"P+	c #78170D",
"Q+	c #7A0E00",
"R+	c #503C35",
"S+	c #9A9C99",
"T+	c #DFE2DB",
"U+	c #23201E",
"V+	c #4C3733",
"W+	c #650000",
"X+	c #96534A",
"Y+	c #FCFBFB",
"Z+	c #762E26",
"`+	c #530600",
" @	c #560C03",
".@	c #5A0D03",
"+@	c #590D03",
"@@	c #5B0D02",
"#@	c #5B0D03",
"$@	c #5C0D03",
"%@	c #5D0D03",
"&@	c #5D0E03",
"*@	c #5F0E03",
"=@	c #5F0D04",
"-@	c #580300",
";@	c #81463E",
">@	c #FFFFFF",
",@	c #833027",
"'@	c #690000",
")@	c #5D423C",
"!@	c #727270",
"~@	c #F0F3EC",
"{@	c #262324",
"]@	c #211C1B",
"^@	c #23201F",
"/@	c #49322F",
"(@	c #600000",
"_@	c #9A635D",
":@	c #662E29",
"<@	c #4A0400",
"[@	c #500C03",
"}@	c #510C03",
"|@	c #520B03",
"1@	c #530D03",
"2@	c #540D03",
"3@	c #540C03",
"4@	c #540C04",
"5@	c #560D03",
"6@	c #550C03",
"7@	c #570D03",
"8@	c #4E0000",
"9@	c #7F4A43",
"0@	c #894038",
"a@	c #640000",
"b@	c #634842",
"c@	c #1E1D1B",
"d@	c #383535",
"e@	c #393635",
"f@	c #1D1A19",
"g@	c #483231",
"h@	c #570000",
"i@	c #945D56",
"j@	c #754740",
"k@	c #3F0000",
"l@	c #4A0B02",
"m@	c #4B0A02",
"n@	c #4B0B02",
"o@	c #4C0B02",
"p@	c #4D0B02",
"q@	c #4D0902",
"r@	c #4F0A03",
"s@	c #4F0B03",
"t@	c #4E0A03",
"u@	c #4F0B02",
"v@	c #4F0C03",
"w@	c #500B03",
"x@	c #520C02",
"y@	c #420000",
"z@	c #936A65",
"A@	c #843A32",
"B@	c #644843",
"C@	c #201E1E",
"D@	c #201C1D",
"E@	c #231F1D",
"F@	c #E4E7E2",
"G@	c #979894",
"H@	c #42322F",
"I@	c #520000",
"J@	c #7A3A34",
"K@	c #A88B88",
"L@	c #2E0000",
"M@	c #410901",
"N@	c #430902",
"O@	c #430A02",
"P@	c #440A02",
"Q@	c #450902",
"R@	c #440A03",
"S@	c #440801",
"T@	c #470A02",
"U@	c #480A03",
"V@	c #480902",
"W@	c #480A02",
"X@	c #490902",
"Y@	c #360000",
"Z@	c #C6B2B1",
"`@	c #F8F5F5",
" #	c #722219",
".#	c #610000",
"+#	c #5F4941",
"@#	c #211E1E",
"##	c #C7C8C3",
"$#	c #C7CAC4",
"%#	c #302B2A",
"&#	c #530502",
"*#	c #60140C",
"=#	c #EBE4E3",
"-#	c #EDE6E4",
";#	c #3E0A07",
">#	c #390701",
",#	c #3C0702",
"'#	c #3B0802",
")#	c #3D0802",
"!#	c #3E0903",
"~#	c #380100",
"{#	c #906D68",
"]#	c #79514D",
"^#	c #3B0200",
"/#	c #410902",
"(#	c #410802",
"_#	c #400902",
":#	c #3F0601",
"<#	c #572622",
"[#	c #FCFAFA",
"}#	c #D9C5C3",
"|#	c #620800",
"1#	c #72180C",
"2#	c #443530",
"3#	c #D7D8D1",
"4#	c #272829",
"5#	c #5A2620",
"6#	c #4F0000",
"7#	c #B79691",
"8#	c #AA8E8B",
"9#	c #390000",
"0#	c #3F0A04",
"a#	c #370702",
"b#	c #380801",
"c#	c #380701",
"d#	c #340909",
"e#	c #DED3D3",
"f#	c #BEADAA",
"g#	c #320302",
"h#	c #3C0802",
"i#	c #420A02",
"j#	c #400403",
"k#	c #C4B1AE",
"l#	c #A5726B",
"m#	c #5A0000",
"n#	c #7F4036",
"o#	c #1D1C1C",
"p#	c #211D1D",
"q#	c #2B2728",
"r#	c #D9DAD3",
"s#	c #676563",
"t#	c #2C1817",
"u#	c #4D0200",
"v#	c #76332C",
"w#	c #F5F1F0",
"x#	c #FAF8F8",
"y#	c #814B45",
"z#	c #470000",
"A#	c #3E0802",
"B#	c #390500",
"C#	c #471A18",
"D#	c #EFEBEA",
"E#	c #E3D9D9",
"F#	c #3B0F0F",
"G#	c #3B0700",
"H#	c #3F0902",
"I#	c #480802",
"J#	c #4C0000",
"K#	c #956962",
"L#	c #FCFCFC",
"M#	c #EFE5E4",
"N#	c #712117",
"O#	c #5B0701",
"P#	c #522F27",
"Q#	c #1B1C1D",
"R#	c #211D1B",
"S#	c #332F32",
"T#	c #C5C6C1",
"U#	c #BCBDB8",
"V#	c #1A1514",
"W#	c #430807",
"X#	c #550800",
"Y#	c #BC9691",
"Z#	c #975D56",
"`#	c #6B0800",
" $	c #670C00",
".$	c #6C271D",
"+$	c #F2EEED",
"@$	c #611512",
"#$	c #650E01",
"$$	c #670500",
"%$	c #660100",
"&$	c #A77872",
"*$	c #A97169",
"=$	c #5C0500",
"-$	c #581008",
";$	c #2D2625",
">$	c #24201F",
",$	c #E8EAE3",
"'$	c #676564",
")$	c #39231E",
"!$	c #4D0000",
"~$	c #5F0600",
"{$	c #D8BCB9",
"]$	c #C7A39E",
"^$	c #92362B",
"/$	c #880E08",
"($	c #8A261C",
"_$	c #F3EDEC",
":$	c #EBE3E2",
"<$	c #841411",
"[$	c #89130B",
"}$	c #954036",
"|$	c #D1B8B5",
"1$	c #CA9F99",
"2$	c #630200",
"3$	c #580401",
"4$	c #634037",
"5$	c #1E1C1D",
"6$	c #302C2C",
"7$	c #C1C3BD",
"8$	c #D3D4CD",
"9$	c #201F21",
"0$	c #3F1B17",
"a$	c #590500",
"b$	c #761B11",
"c$	c #D4B3AE",
"d$	c #F6F2F1",
"e$	c #DCC8C5",
"f$	c #C9A9A5",
"g$	c #F9F6F6",
"h$	c #F4F0F0",
"i$	c #C7A5A1",
"j$	c #E1D1CF",
"k$	c #C69893",
"l$	c #76160A",
"m$	c #5F0500",
"n$	c #632E21",
"o$	c #1D1D1F",
"p$	c #D4D7D1",
"q$	c #A5A4A0",
"r$	c #171616",
"s$	c #511913",
"t$	c #630700",
"u$	c #6F0600",
"v$	c #B57A73",
"w$	c #F0E4E3",
"x$	c #FDFDFD",
"y$	c #FEFEFE",
"z$	c #ECDDDC",
"A$	c #AA635A",
"B$	c #6F0300",
"C$	c #6A0801",
"D$	c #6D2614",
"E$	c #1E1A1B",
"F$	c #1B1817",
"G$	c #DDE0D9",
"H$	c #A1A19B",
"I$	c #19191B",
"J$	c #472019",
"K$	c #7C0E04",
"L$	c #740800",
"M$	c #862215",
"N$	c #AC665C",
"O$	c #D1ADA9",
"P$	c #E9DAD8",
"Q$	c #FDFCFC",
"R$	c #E6D4D2",
"S$	c #CEA59F",
"T$	c #A95C51",
"U$	c #851D0F",
"V$	c #730500",
"W$	c #7E1004",
"X$	c #602E1F",
"Y$	c #121113",
"Z$	c #7D7C78",
"`$	c #ADADA7",
" %	c #AEAFAA",
".%	c #1F1919",
"+%	c #1D1E20",
"@%	c #3A2E2C",
"#%	c #7E1F0C",
"$%	c #831406",
"%%	c #840A00",
"&%	c #7E0400",
"*%	c #8C2B21",
"=%	c #F6F0EF",
"-%	c #EEE3E3",
";%	c #84180E",
">%	c #810600",
",%	c #840B00",
"'%	c #841307",
")%	c #882611",
"!%	c #442F25",
"~%	c #131517",
"{%	c #83837F",
"]%	c #E2E4DE",
"^%	c #211D1E",
"/%	c #352420",
"(%	c #572A1E",
"_%	c #88311B",
":%	c #933A28",
"<%	c #DECDC7",
"[%	c #DAC3BC",
"}%	c #93311F",
"|%	c #933D27",
"1%	c #652E1D",
"2%	c #321D18",
"3%	c #120E10",
"4%	c #515150",
"5%	c #C7C7C2",
"6%	c #D5D5D0",
"7%	c #242122",
"8%	c #181C1F",
"9%	c #211F1F",
"0%	c #281A15",
"a%	c #291C16",
"b%	c #1E1A19",
"c%	c #16191C",
"d%	c #222527",
"e%	c #5F5E5C",
"f%	c #B0B0AB",
"g%	c #E6E8E1",
"h%	c #CDCEC8",
"i%	c #322E2F",
"j%	c #262222",
"k%	c #201D1B",
"l%	c #22201F",
"m%	c #1A1718",
"n%	c #959591",
"o%	c #CBCDC7",
"p%	c #D8D9D3",
"q%	c #D9DBD5",
"r%	c #CECECA",
"s%	c #2C2828",
"t%	c #242021",
"u%	c #393736",
"v%	c #DFE1DB",
"w%	c #D2D5CE",
"x%	c #201B1A",
"                                . +                             ",
"                          @ # $ % & * =                         ",
"                    - ; > , ' ) ! ~ { ] ^ / (                   ",
"                _ : < [ } | 1 2 3 4 5 6 7 8 9 0 a               ",
"              b c d e f g h i j k l m n o p q r s               ",
"            t u v w x y z A B C D E F G H I J K L M             ",
"          N O P Q R S T U V W X Y Z `  ...+.@.#.$.%.&.          ",
"      *.=.-.;.>.,.'.).!.A W ~.Y {.].^.^./.(._.:.<.[.}.|.        ",
"      0 0 1.2.3.4.5.6.7.C D 8.F 9.0.a.b.c.d.e.f.g.h.i.j.k.      ",
"    l.=.m.n.o.p.q.r.s.t.{.F u.v.0.w.x.y.z.A.B.C.D.E.F.G.H.      ",
"    I.. J.K.L.M.N.O.P.Q.v.R.S.T.U.V.W.X.Y.Z.`. +.+++@+#+$+%+    ",
"    &+*+=+-+;+>+,+'+G )+!+~+{+]+^+]+/+(+_+:+<+[+}+|+1+2+3+|.    ",
"  4+5+6+7+8+9+0+a+b+c+d+e+f+f+g+h+i+j+k+l+m+l+n+o+p+q+r+s+t+    ",
"  u+v+w+x+y+z+A+B+C+D+E+F+G+H+I+H+H+J+J+J+K+L+M+N+O+P+Q+R+S+T+  ",
"  9 U+V+W+X+Y+Z+`+ @.@+@.@@@@@#@$@$@%@%@&@*@=@-@;@>@,@'@)@!@~@  ",
"{@]@^@/@(@_@Y+:@<@[@}@|@1@2@3@4@5@6@ @5@5@7@7@8@9@>@0@a@b@c@d@  ",
"  e@f@g@h@i@>@j@k@l@m@n@o@o@p@q@r@s@t@u@v@w@x@y@z@>@A@(@B@C@D@E@",
"  F@G@H@I@J@>@K@L@M@N@O@P@Q@Q@R@S@T@U@V@V@W@X@Y@Z@`@ #.#+#@#v+  ",
"  ##$#%#&#*#=#-#;#>#,#'#)#!#~#{#]#^#/#(#_#/#:#<#[#}#|#1#2#C@^@  ",
"    3#4#5#6#7#>@8#9#0#a#b#c#d#e#f#g#'#'#h#i#j#k#>@l#m#n#o#p#q#  ",
"    r#s#t#u#v#w#x#y#z#N@A#B#C#D#E#F#G#H#I#J#K#L#M#N#O#P#Q#R#S#  ",
"    T#U#V#W#X#Y#>@x#Z#n+`# $.$+$=#@$#$$$%$&$L#>@*$=$-$;$. >$    ",
"      ,$'$)$!$~${$>@>@]$^$/$($_$:$<$[$}$|$>@>@1$2$3$4$5$. 6$    ",
"      7$8$9$0$a$b$c$>@>@d$e$f$g$h$i$j$`@>@>@k$l$m$n$o$*.9       ",
"        p$q$r$s$t$u$v$w$x$>@>@y$>@>@>@Y+z$A$B$C$D$E$F$@#>$      ",
"          G$H$I$J$K$L$M$N$O$P$Q$L#R$S$T$U$V$W$X$Y$Z$`$          ",
"             %.%+%@%#%$%%%&%*%=%-%;%>%,%'%)%!%~%{%]%            ",
"              ^%^@p#q /%(%_%:%<%[%}%|%1%2%3%4%5%6%              ",
"              7%9 . 9 E@Q#8%9%0%a%b%c%d%e%f%g%h%                ",
"                  i%j%k%9 E@E@l%m%n%o%p%q%r%                    ",
"                      e@s%t%v+% u%v%w%                          ",
"                              x%                                "};
