/* XPM */
static char *qldtce[] = {
/* columns rows colors chars-per-pixel */
"32 32 99 2",
"   c #0F1111",
".  c #181515",
"X  c #1C1A1A",
"o  c #2F3236",
"O  c #353434",
"+  c #3E3B39",
"@  c #42403F",
"#  c #3F4446",
"$  c #454444",
"%  c #4D4D4C",
"&  c #544B4C",
"*  c #555657",
"=  c #57585A",
"-  c #5C5A5C",
";  c #79726D",
":  c #5C6C83",
">  c #858483",
",  c #8D8C8C",
"<  c #939190",
"1  c #9C9B9C",
"2  c #A39C9D",
"3  c #9E9EA1",
"4  c #A09EA3",
"5  c #9DA0A1",
"6  c #A2A2A2",
"7  c #A7A8A7",
"8  c #A5A7A9",
"9  c #A8A7AA",
"0  c #A4ACAC",
"q  c #ACADAD",
"w  c #B1AFAF",
"e  c #AFB0AF",
"r  c #B0B0AF",
"t  c #AFAFB0",
"y  c #B0AFB0",
"u  c #AFB0B0",
"i  c #B1B1B2",
"p  c #B5B9BC",
"a  c #BBBCBC",
"s  c #C6999A",
"d  c #F4B6B4",
"f  c #FEBCB6",
"g  c #F3B2B8",
"h  c #F5B8BC",
"j  c #FDBCBB",
"k  c #C7C2BC",
"l  c #9CAFC5",
"z  c #A5BAD6",
"x  c #F3BFC3",
"c  c #ACCDE9",
"v  c #B2C7EA",
"b  c #B4CDEA",
"n  c #B9CDEB",
"m  c #B7D0E7",
"M  c #B6D1EC",
"N  c #BCD3EC",
"B  c #BDD7F3",
"V  c #BDDCF7",
"C  c #B7DDF9",
"Z  c #C3C5C5",
"A  c #C3C4CB",
"S  c #C7CAC8",
"D  c #CDCDCB",
"F  c #D2D1CE",
"G  c #DDD5CE",
"H  c #D4D4D4",
"J  c #D8D5D7",
"K  c #DADCDC",
"L  c #F4C0C4",
"P  c #FDC3C3",
"I  c #FDC9C8",
"U  c #E0E1DF",
"Y  c #C2D6ED",
"T  c #C5D9EE",
"R  c #C9DBEF",
"E  c #C5DAF1",
"W  c #CBDCF0",
"Q  c #C1DEFA",
"!  c #CDE5F7",
"~  c #CDE4FB",
"^  c #CDE9FC",
"/  c #E3E4E4",
"(  c #EAE7E6",
")  c #E8E8E4",
"_  c #E4E4E8",
"`  c #ECECEC",
"'  c #F0EFEE",
"]  c #F2F1EF",
"[  c #EEEEF0",
"{  c #F1EFF0",
"}  c #EFF2F0",
"|  c #F5F4F4",
" . c #F9F6F4",
".. c #F7F8F6",
"X. c #FBFAF6",
"o. c #F8F7F8",
"O. c #F5F9F9",
"+. c #FDFDFC",
"@. c None",
/* pixels */
"@.@.@.@.@.@.@.@.@.@.@.@.@.@.@.@.@.@.@.@.@.@.@.@.@.@.@.@.@.@.@.@.",
"@.@.@.@.@.i u i i i i r i i i i u t r t i i r u e i i i @.@.@.@.",
"@.@.@.@.@.i +.+.+.+.+.+.+.+.+.+.+.+.+.+.+.+.+.+.+.+.+.r @.@.@.@.",
"@.@.@.@.@.i o.+.+.o.+.o.X.+.+.+.+.+.+.+.+.+.+.+.o...o.r @.@.@.@.",
"@.@.@.@.@.i ..Z o.+...+.+.+.+.+.+.+.+.+.+.+.+.+.+.o.o.t @.@.@.@.",
"@.@.@.@.@.i o...o.x W R T T E T T T Y R T W E W T +.+.q @.@.@.@.",
"@.@.@.@.@.r o.` O.I +.X.+.o.+.+.+.+.+.+.+.+.+.+.+.+.+.q @.@.@.@.",
"@.@.@.@.@.r O.U O.P +.o.+.+.+.+.+.+.+.+.+.+.+.+.+.+.+.9 @.@.@.@.",
"@.@.@.@.@.i | ..o.x E N E N N N N m m N N N N Y Y +.+.9 @.@.@.@.",
"@.@.@.@.@.q o.a o.P +.X.X.X.+.+.+.+.+.+.+.+.+.+.+.+.+.7 @.@.@.@.",
"@.@.@.@.@.t o.| O.j +.+.X.+.+.X.+.+.+.+.+.+.+.+.+.+.+.7 @.@.@.@.",
"@.@.@.@.@.e o.( O.h V N M M b V ~ ~ : ^ c n b N n +.+.6 @.@.@.@.",
"@.@.@.@.@.q O.K O.j +...X.+.+.+.; G . +.+.+.+.+.+.+.+.6 @.@.@.@.",
"@.@.@.@.@.q o.| O.f +.X.X.+.) + +.k O.+.+.+.+.+.+.+.+.6 @.@.@.@.",
"@.@.@.@.@.e o.i O.g C M Q M 5 K |   ^ v b b M m n +.+.6 @.@.@.@.",
"@.@.@.@.@.q ..| O.f +.+.X.2 D 5 X | +.X.+.+.+.+.+.+.+.6 @.@.@.@.",
"@.@.@.@.@.q | J O.f o.( 1 S 4 + G +.+.X.+.+.+.+.+.X.+.7 @.@.@.@.",
"@.@.@.@.@.q O./ O.x M 3 A 3 O z ^ M M M m N N Y Y +.+.6 @.@.@.@.",
"@.@.@.@.@.q O.| O.d 0 a 3 $ J +.+.X.X.X.X.X.+.+.+.+.+.7 @.@.@.@.",
"@.@.@.@.@.q o.i ) 2 p 1 & F X.X.X.X.X.X.X.X.+.X.+.o.+.9 @.@.@.@.",
"@.@.@.@.@.q | K 5 [ 5 $ l ! Y N N E N T T T E R T +.+.9 @.@.@.@.",
"@.@.@.@.@.i / 6 [ i % H +. .o. . ..... .....o. .....+.q @.@.@.@.",
"@.@.@.@.@.9 9 _ u & S +. .]  .|  . . .|  .....X.o...o.e @.@.@.@.",
"@.@.@.@.@.5 ` t = s ! E T T T R T R R R W R R W W o.+.q @.@.@.@.",
"@.@.@.@.5 ) u % Z P | | ] | | | | | |  . .| | o...o.+.w @.@.@.@.",
"@.@.@.9 _ i - F | P } ` ] ] ] ] ] ] | | | | | o.| o.o.r @.@.@.@.",
"@.@., _ i = A J ` x W E R R W R R R R W R R W W R | ..r @.@.@.@.",
"@.> < 1 = , [ / ` ` ' ' ] ` ] | ' | ' | | | | | | o.o.i @.@.@.@.",
"X - , $ @.i ` ` ` ` ` ` ` } ` ` ] | | ` | [ | | | | o.i @.@.@.@.",
"@.. O @.@.i o.O...| ..o.O.o.+.o.+.o.+.+.+.+.+.+.+.+.+.i @.@.@.@.",
"@.@.@.@.@.i 6 6 6 4 6 6 6 6 6 6 6 6 6 6 6 7 6 7 7 7 7 6 @.@.@.@.",
"@.@.@.@.@.@.@.@.@.@.@.@.@.@.@.@.@.@.@.@.@.@.@.@.@.@.@.@.@.@.@.@."
};
